<svg id="visual" viewBox="0 0 960 300" width="960" height="300" xmlns="http://www.w3.org/2000/svg" xmlns:xlink="http://www.w3.org/1999/xlink" version="1.1"><rect x="0" y="0" width="960" height="300" fill="#242424"></rect><path d="M0 110L26.7 107C53.3 104 106.7 98 160 92.2C213.3 86.3 266.7 80.7 320 84.2C373.3 87.7 426.7 100.3 480 104.5C533.3 108.7 586.7 104.3 640 103.8C693.3 103.3 746.7 106.7 800 104C853.3 101.3 906.7 92.7 933.3 88.3L960 84L960 0L933.3 0C906.7 0 853.3 0 800 0C746.7 0 693.3 0 640 0C586.7 0 533.3 0 480 0C426.7 0 373.3 0 320 0C266.7 0 213.3 0 160 0C106.7 0 53.3 0 26.7 0L0 0Z" fill="#933dc9"></path><path d="M0 93L26.7 92.5C53.3 92 106.7 91 160 86.3C213.3 81.7 266.7 73.3 320 73C373.3 72.7 426.7 80.3 480 81.5C533.3 82.7 586.7 77.3 640 79.5C693.3 81.7 746.7 91.3 800 94.8C853.3 98.3 906.7 95.7 933.3 94.3L960 93L960 0L933.3 0C906.7 0 853.3 0 800 0C746.7 0 693.3 0 640 0C586.7 0 533.3 0 480 0C426.7 0 373.3 0 320 0C266.7 0 213.3 0 160 0C106.7 0 53.3 0 26.7 0L0 0Z" fill="#8333ba"></path><path d="M0 54L26.7 52.5C53.3 51 106.7 48 160 50.8C213.3 53.7 266.7 62.3 320 63.5C373.3 64.7 426.7 58.3 480 56.3C533.3 54.3 586.7 56.7 640 60.5C693.3 64.3 746.7 69.7 800 72.7C853.3 75.7 906.7 76.3 933.3 76.7L960 77L960 0L933.3 0C906.7 0 853.3 0 800 0C746.7 0 693.3 0 640 0C586.7 0 533.3 0 480 0C426.7 0 373.3 0 320 0C266.7 0 213.3 0 160 0C106.7 0 53.3 0 26.7 0L0 0Z" fill="#7328ac"></path><path d="M0 42L26.7 41.7C53.3 41.3 106.7 40.7 160 42.8C213.3 45 266.7 50 320 48.3C373.3 46.7 426.7 38.3 480 37.7C533.3 37 586.7 44 640 44C693.3 44 746.7 37 800 33.2C853.3 29.3 906.7 28.7 933.3 28.3L960 28L960 0L933.3 0C906.7 0 853.3 0 800 0C746.7 0 693.3 0 640 0C586.7 0 533.3 0 480 0C426.7 0 373.3 0 320 0C266.7 0 213.3 0 160 0C106.7 0 53.3 0 26.7 0L0 0Z" fill="#631d9d"></path><path d="M0 15L26.7 15C53.3 15 106.7 15 160 18.3C213.3 21.7 266.7 28.3 320 31.5C373.3 34.7 426.7 34.3 480 33.5C533.3 32.7 586.7 31.3 640 30.7C693.3 30 746.7 30 800 27.2C853.3 24.3 906.7 18.7 933.3 15.8L960 13L960 0L933.3 0C906.7 0 853.3 0 800 0C746.7 0 693.3 0 640 0C586.7 0 533.3 0 480 0C426.7 0 373.3 0 320 0C266.7 0 213.3 0 160 0C106.7 0 53.3 0 26.7 0L0 0Z" fill="#53118f"></path></svg>